<?xml version="1.0" encoding="UTF-8"?>
<svg xmlns="http://www.w3.org/2000/svg" xmlns:xlink="http://www.w3.org/1999/xlink" width="20pt" height="20pt" viewBox="0 0 20 20" version="1.1">
<g id="surface1">
<path style=" stroke:none;fill-rule:nonzero;fill:rgb(0%,0%,0%);fill-opacity:1;" d="M 19.628906 1.015625 C 19.316406 0.429688 18.839844 0.152344 18.183594 0.152344 C 15.46875 0.152344 12.714844 0.152344 10 0.152344 C 8.96875 0.152344 7.9375 0.152344 6.90625 0.152344 C 5.1875 0.152344 3.46875 0.152344 1.746094 0.152344 C 0.886719 0.152344 0.304688 0.671875 0.199219 1.496094 C 0.199219 1.5625 0.234375 1.703125 0.269531 1.734375 C 2.4375 4.210938 4.601562 6.621094 6.800781 9.058594 C 6.90625 9.164062 6.941406 9.265625 6.941406 9.4375 C 6.941406 11.707031 6.941406 13.941406 6.941406 16.210938 C 6.941406 17.210938 7.421875 17.964844 8.316406 18.410156 C 8.933594 18.722656 9.589844 18.929688 10.207031 19.203125 C 10.722656 19.40625 11.207031 19.613281 11.71875 19.785156 C 12.234375 19.957031 12.71875 19.71875 12.890625 19.269531 C 12.957031 19.097656 12.992188 18.859375 12.992188 18.652344 C 12.992188 15.59375 12.992188 12.53125 12.992188 9.46875 C 12.992188 9.332031 13.027344 9.230469 13.132812 9.125 C 13.921875 8.230469 14.746094 7.339844 15.539062 6.445312 C 16.914062 4.894531 18.324219 3.351562 19.699219 1.800781 C 19.734375 1.769531 19.804688 1.664062 19.804688 1.597656 C 19.730469 1.390625 19.730469 1.1875 19.628906 1.015625 Z M 17.5625 1.90625 C 15.847656 3.800781 14.160156 5.691406 12.441406 7.582031 C 12.40625 7.617188 11.992188 8.03125 11.480469 8.511719 C 11.480469 11.398438 11.480469 15.316406 11.480469 18.035156 C 11.410156 18 11.34375 18 11.308594 17.964844 C 10.585938 17.691406 9.863281 17.382812 9.140625 17.105469 C 8.695312 16.933594 8.488281 16.589844 8.488281 16.109375 C 8.488281 13.90625 8.488281 11.707031 8.488281 9.472656 C 8.488281 9.4375 8.488281 8.957031 8.488281 8.511719 C 8.007812 8.027344 7.59375 7.648438 7.558594 7.617188 C 5.773438 5.691406 4.050781 3.730469 2.296875 1.804688 C 2.265625 1.769531 2.230469 1.734375 2.195312 1.664062 C 7.386719 1.664062 12.542969 1.664062 17.769531 1.664062 C 17.667969 1.773438 17.632812 1.839844 17.5625 1.90625 Z M 17.5625 1.90625 "/>
</g>
</svg>
